<svg width="64" height="64" viewBox="0 0 64 64" fill="none" xmlns="http://www.w3.org/2000/svg">
<g clip-path="url(#clip0)">
<path d="M4.28801 15.41C-1.37199 23.55 -0.671986 34.138 3.65601 42.81C3.75601 43.018 3.86601 43.222 3.97201 43.426L4.17201 43.816C4.21201 43.892 4.25601 43.966 4.29801 44.04C4.37201 44.18 4.44801 44.308 4.52401 44.444L4.93801 45.152L5.17401 45.54L5.65401 46.29L5.85801 46.606C6.08401 46.942 6.31401 47.278 6.55201 47.606L6.68801 47.79C6.89418 48.0734 7.10487 48.3534 7.32001 48.63L7.56001 48.934L8.14401 49.654L8.36801 49.922C8.63401 50.236 8.90801 50.548 9.18201 50.852C9.21001 50.882 9.22201 50.892 9.23001 50.904C9.50172 51.1987 9.77775 51.4894 10.058 51.776L10.324 52.044L10.984 52.692L11.254 52.952C11.551 53.2321 11.8531 53.5068 12.16 53.776L13.152 54.616L13.492 54.888L14.178 55.424L14.544 55.704L15.314 56.256L15.674 56.51C15.92 56.68 16.17 56.842 16.422 57.004L16.746 57.22C17.1321 57.4651 17.5221 57.7038 17.916 57.936L18.24 58.136L19.12 58.628C19.28 58.714 19.444 58.796 19.606 58.878L20.234 59.204L20.38 59.274L20.64 59.398L21.636 59.858L21.846 59.952C22.2305 60.1195 22.6179 60.2802 23.008 60.434L23.288 60.546L24.384 60.952L24.524 61C24.9287 61.1393 25.3354 61.2727 25.744 61.4L26.04 61.488C26.44 61.614 26.872 61.768 27.3 61.844C54.688 66.838 62.64 45.384 62.64 45.384C55.96 54.088 44.1 56.384 32.84 53.828C32.414 53.732 32 53.6 31.586 53.476L31.274 53.382C30.8691 53.2576 30.4664 53.1262 30.066 52.988L29.9 52.928C29.5436 52.8015 29.1889 52.6702 28.836 52.534L28.536 52.414C28.1494 52.2619 27.766 52.1019 27.386 51.934L27.156 51.834L26.186 51.382L25.906 51.248C25.654 51.128 25.406 50.994 25.156 50.848L24.656 50.588C24.352 50.428 24.056 50.256 23.756 50.084L23.452 49.914C23.0583 49.6815 22.6682 49.4428 22.282 49.198C22.176 49.13 22.072 49.058 21.966 48.988L21.134 48.434C21.042 48.374 20.934 48.306 20.866 48.246L20.078 47.676L19.728 47.412L19.018 46.856L18.702 46.602L17.818 45.856C17.7859 45.8279 17.7525 45.8012 17.718 45.776L16.788 44.93L16.528 44.678L15.864 44.018L15.604 43.758C15.324 43.472 15.052 43.184 14.804 42.89C14.79 42.876 14.776 42.862 14.764 42.846C14.4808 42.5352 14.2035 42.2191 13.932 41.898L13.732 41.638L13.132 40.898L12.932 40.624L12.24 39.704C5.96401 31.2 3.72001 19.444 8.70801 9.804L4.28801 15.41ZM21.868 8.554C17.772 14.448 17.994 22.354 21.188 28.57C21.7232 29.6177 22.3286 30.628 23 31.594C23.614 32.474 24.294 33.52 25.108 34.226C25.404 34.552 25.712 34.866 26.028 35.18L26.268 35.42C26.5737 35.7181 26.8864 36.0088 27.206 36.292C27.22 36.302 27.23 36.316 27.246 36.326C27.61 36.646 27.978 36.926 28.352 37.242L28.6 37.436C28.9752 37.7254 29.358 38.0048 29.748 38.274L29.782 38.298C29.954 38.418 30.13 38.528 30.306 38.644C30.39 38.698 30.47 38.756 30.554 38.808C30.8336 38.9874 31.117 39.1608 31.404 39.328L31.524 39.398L32.276 39.798C32.364 39.848 32.476 39.89 32.544 39.938L33.07 40.21C33.096 40.224 33.124 40.234 33.15 40.246C33.5108 40.4257 33.8762 40.5957 34.246 40.756L34.486 40.856C34.7839 40.9825 35.084 41.1038 35.386 41.22L35.77 41.36C36.0439 41.4596 36.3192 41.5549 36.596 41.646L36.97 41.766C37.364 41.886 37.77 42.046 38.164 42.112C59.31 45.616 64.192 29.312 64.192 29.312C59.792 35.652 51.272 38.672 42.176 36.312C41.774 36.2062 41.3745 36.0909 40.978 35.966C40.858 35.93 40.738 35.89 40.618 35.85L39.778 35.562L39.378 35.422C39.0761 35.3055 38.776 35.1842 38.478 35.058L38.234 34.958C37.8619 34.7963 37.4938 34.6255 37.13 34.446L36.576 34.166L36.256 34.002C36.0207 33.8742 35.7873 33.7429 35.556 33.608L35.388 33.514C35.1019 33.3464 34.8192 33.173 34.54 32.994C34.454 32.94 34.37 32.88 34.284 32.824L33.734 32.46C33.3466 32.1915 32.9665 31.9128 32.594 31.624L32.334 31.424C28.334 28.28 25.198 23.984 23.698 19.116C22.126 14.066 22.464 8.396 25.188 3.796L21.868 8.554ZM36.652 3.43C34.24 7 34 11.396 35.676 15.32C37.442 19.486 41.062 22.752 45.288 24.32L45.812 24.52L46.044 24.592L46.798 24.792C58.474 27.048 61.638 18.8 62.484 17.586C59.71 21.58 55.048 22.538 49.328 21.15C48.876 21.04 48.38 20.876 47.944 20.722C47.3844 20.5237 46.8357 20.296 46.3 20.04C45.2834 19.5511 44.318 18.9622 43.418 18.282C38.3 14.4 35.12 6.972 38.46 0.940002" fill="white"/>
</g>
<defs>
<clipPath id="clip0">
<rect width="64" height="64" fill="white"/>
</clipPath>
</defs>
</svg>
